# xmcd CD database file
#
# Track frame offsets:
#	150
#	15119
#	30695
#	45427
#	66415
#	83448
#	100022
#	116747
#	135920
#	155377
#	171484
#	188688
#
# Disc length: 2770 seconds
#
# Revision: 1
# Processed by: cddbd v1.5.2PL0 Copyright (c) Steve Scherf et al.
# Submitted via: CDex 1.70beta3
#
DISCID=870ad00c
DTITLE=Anthony Hamilton - Back To Love
DYEAR=2011
DGENRE=R&B
TTITLE0=Back To Love
TTITLE1=Writing On The Wall
TTITLE2=Woo
TTITLE3=Pray For Me
TTITLE4=Best Of Me
TTITLE5=Never Let Go feat. Keri Hilson
TTITLE6=Mad
TTITLE7=I'll Wait (To Fall In Love)
TTITLE8=Sucka For You
TTITLE9=Baby Girl
TTITLE10=Who's Loving You
TTITLE11=Life Has A Way
EXTD=YEAR: 2011
EXTT0=
EXTT1=
EXTT2=
EXTT3=
EXTT4=
EXTT5=
EXTT6=
EXTT7=
EXTT8=
EXTT9=
EXTT10=
EXTT11=
PLAYORDER=
